<svg id="Слой_3" data-name="Слой 3" xmlns="http://www.w3.org/2000/svg" viewBox="0 0 1024 1024"><defs><style>.cls-1{fill:#ccc;}.cls-2{fill:khaki;}</style></defs><path class="cls-1" d="M92.72,624a32,32,0,0,1-28.46-17.33C26.94,534.37,29,470,37.32,428.69c9-44.58,26.67-72.3,28.66-75.31l53.42,35.24.12-.17c-.14.21-13.62,21.53-20,55.49-8.34,44.61-1.08,89.48,21.58,133.38A32,32,0,0,1,92.72,624Z"/><path class="cls-2" d="M129.69,857C90,857,58.76,836.22,46.06,801.41c-8-21.91-7.65-47.82,1-72.94s24.9-48.3,47.07-67a32,32,0,0,1,41.2,49c-27.26,22.93-35.27,52.07-29.1,69,2.12,5.81,6.86,13.52,23.5,13.52,18.14,0,30.57-15.33,36.36-24.47,18.92-29.84,28.88-90.39-5.3-162.88-27.45-58.2-35.38-108.83-23.6-150.49,9.83-34.75,30.11-50.49,34.07-53.29a32,32,0,0,1,37.85,51.59c-1,1-8.22,7.91-11.51,24-3.66,17.89-3,49.93,21.08,100.94,19.23,40.78,29.16,83.68,28.72,124-.41,38.21-9.84,72.93-27.25,100.4C198.26,837.24,165.31,857,129.69,857Zm78.55-402.93-.08.06Zm0,0v0Z"/><path class="cls-1" d="M175.19,340a86.5,86.5,0,1,1,86.5-86.5A86.6,86.6,0,0,1,175.19,340Zm0-109a22.5,22.5,0,1,0,22.5,22.5A22.52,22.52,0,0,0,175.19,231Z"/><path class="cls-1" d="M353.37,458.25c15.4,0,37.45,6.94,47.41,19.32V381.25h60.39V620.11l9.06,20.83H409.84l-9.06-17.51c-7.55,11.47-26.27,19.32-47.41,19.32-50.73,0-92.1-41.67-92.1-92.4C261.27,499.92,302.64,458.25,353.37,458.25Zm34.73,92.1c0-17.21-14.5-31.4-31.71-31.4a31.56,31.56,0,1,0,31.71,31.4Z"/><path class="cls-1" d="M554.78,441.64H494.39V381.25h60.39Zm0,18.12V640.94H494.39V459.76Z"/><path class="cls-2" d="M759.82,550.35a91.2,91.2,0,1,1-91.2-91.2A91.12,91.12,0,0,1,759.82,550.35Zm-59.49,0a31.71,31.71,0,1,0-31.71,31.71A31.71,31.71,0,0,0,700.33,550.35Z"/><path class="cls-1" d="M874.56,458.25c15.4,0,37.45,6.94,47.41,19.32V381.25h60.4V620.11l9.06,20.83H931L922,623.43c-7.55,11.47-26.27,19.32-47.41,19.32-50.73,0-92.1-41.67-92.1-92.4C782.46,499.92,823.83,458.25,874.56,458.25Zm34.73,92.1c0-17.21-14.49-31.4-31.71-31.4a31.56,31.56,0,1,0,31.71,31.4Z"/></svg>