<svg id="Слой_3" data-name="Слой 3" xmlns="http://www.w3.org/2000/svg" viewBox="0 0 1024 512.01"><defs><style>.cls-1{fill:#ccc;}.cls-2{fill:khaki;}</style></defs><path class="cls-1" d="M108.72,339.12A23.75,23.75,0,0,1,87.6,326.26c-27.69-53.65-26.15-101.43-20-132.07,6.66-33.07,19.8-53.65,21.27-55.88l39.64,26.15.09-.13c-.1.16-10.11,16-14.82,41.17-6.19,33.11-.8,66.41,16,99a23.75,23.75,0,0,1-21.08,34.64Z"/><path class="cls-2" d="M136.16,512c-29.44,0-52.64-15.42-62.06-41.25-5.93-16.26-5.67-35.48.71-54.12S93.29,380.79,109.74,367a23.74,23.74,0,1,1,30.57,36.34c-20.23,17-26.17,38.64-21.59,51.2,1.57,4.31,5.08,10,17.44,10,13.46,0,22.68-11.38,27-18.16,14-22.14,21.43-67.07-3.94-120.86-20.38-43.16-26.22-80.73-17.53-111.63C149,188,164,176.37,167,174.29a23.74,23.74,0,0,1,28.09,38.28c-.78.7-6.1,5.87-8.54,17.77-2.72,13.28-2.21,37,15.64,74.9,14.27,30.27,21.64,62.1,21.31,92-.31,28.36-7.3,54.12-20.22,74.5C187,497.35,162.59,512,136.16,512Zm58.28-299h0Zm0,0Z"/><path class="cls-1" d="M169.92,128.38a64.19,64.19,0,1,1,64.18-64.2v0A64.25,64.25,0,0,1,169.92,128.38Zm0-80.88a16.7,16.7,0,1,0,16.69,16.71h0A16.73,16.73,0,0,0,169.92,47.5Z"/><path class="cls-1" d="M353.37,202.26c15.4,0,37.45,6.94,47.41,19.32V125.26h60.39V364.12L470.23,385H409.84l-9.06-17.51c-7.55,11.47-26.27,19.32-47.41,19.32-50.73,0-92.1-41.67-92.1-92.4C261.27,243.93,302.64,202.26,353.37,202.26Zm34.73,92.1c0-17.21-14.5-31.4-31.71-31.4a31.56,31.56,0,1,0,31.71,31.41Z"/><path class="cls-1" d="M554.78,185.65H494.39V125.26h60.39Zm0,18.12V385H494.39V203.77Z"/><path class="cls-2" d="M759.82,294.36a91.12,91.12,0,1,1,0-.16Zm-59.49,0a31.71,31.71,0,1,0-31.71,31.71,31.71,31.71,0,0,0,31.71-31.71Z"/><path class="cls-1" d="M874.56,202.26c15.4,0,37.45,6.94,47.41,19.32V125.26h60.4V364.12L991.43,385H931l-9-17.51c-7.55,11.47-26.27,19.32-47.41,19.32-50.73,0-92.1-41.67-92.1-92.4C782.46,243.93,823.83,202.26,874.56,202.26Zm34.73,92.1c0-17.21-14.49-31.4-31.71-31.4a31.56,31.56,0,1,0,31.71,31.41Z"/></svg>