<svg id="Слой_3" data-name="Слой 3" xmlns="http://www.w3.org/2000/svg" viewBox="0 0 1024 1024"><defs><style>.cls-1{fill:#ccc;}.cls-2{fill:khaki;}</style></defs><path class="cls-1" d="M108.72,595.11A23.75,23.75,0,0,1,87.6,582.25c-27.69-53.65-26.15-101.43-20-132.07,6.66-33.07,19.8-53.65,21.27-55.88l39.64,26.15.09-.13c-.1.16-10.11,16-14.82,41.17-6.19,33.11-.8,66.41,16,99a23.75,23.75,0,0,1-21.08,34.64Z"/><path class="cls-2" d="M136.16,768c-29.44,0-52.64-15.42-62.06-41.25-5.93-16.26-5.67-35.48.71-54.12s18.48-35.85,34.93-49.69a23.74,23.74,0,1,1,30.57,36.34c-20.23,17-26.17,38.64-21.59,51.2,1.57,4.31,5.08,10,17.44,10,13.46,0,22.68-11.38,27-18.16,14-22.14,21.43-67.07-3.94-120.86C138.84,538.3,133,500.73,141.69,469.83,149,444,164,432.36,167,430.28a23.74,23.74,0,0,1,28.09,38.28c-.78.7-6.1,5.87-8.54,17.77-2.72,13.28-2.21,37.05,15.64,74.9,14.27,30.27,21.64,62.1,21.31,92-.31,28.36-7.3,54.12-20.22,74.5C187,753.34,162.59,768,136.16,768Zm58.28-299-.05,0Zm0,0h0Z"/><path class="cls-1" d="M169.92,384.37a64.19,64.19,0,1,1,64.18-64.18A64.26,64.26,0,0,1,169.92,384.37Zm0-80.88a16.7,16.7,0,1,0,16.69,16.7A16.72,16.72,0,0,0,169.92,303.49Z"/><path class="cls-1" d="M353.37,458.25c15.4,0,37.45,6.94,47.41,19.32V381.25h60.39V620.11l9.06,20.83H409.84l-9.06-17.51c-7.55,11.47-26.27,19.32-47.41,19.32-50.73,0-92.1-41.67-92.1-92.4C261.27,499.92,302.64,458.25,353.37,458.25Zm34.73,92.1c0-17.21-14.5-31.4-31.71-31.4a31.56,31.56,0,1,0,31.71,31.4Z"/><path class="cls-1" d="M554.78,441.64H494.39V381.25h60.39Zm0,18.12V640.94H494.39V459.76Z"/><path class="cls-2" d="M759.82,550.35a91.2,91.2,0,1,1-91.2-91.2A91.12,91.12,0,0,1,759.82,550.35Zm-59.49,0a31.71,31.71,0,1,0-31.71,31.71A31.71,31.71,0,0,0,700.33,550.35Z"/><path class="cls-1" d="M874.56,458.25c15.4,0,37.45,6.94,47.41,19.32V381.25h60.4V620.11l9.06,20.83H931L922,623.43c-7.55,11.47-26.27,19.32-47.41,19.32-50.73,0-92.1-41.67-92.1-92.4C782.46,499.92,823.83,458.25,874.56,458.25Zm34.73,92.1c0-17.21-14.49-31.4-31.71-31.4a31.56,31.56,0,1,0,31.71,31.4Z"/></svg>